<?xml version="1.0" encoding="UTF-8" standalone="no"?>
<svg
   xmlns:osb="http://www.openswatchbook.org/uri/2009/osb"
   xmlns:dc="http://purl.org/dc/elements/1.1/"
   xmlns:cc="http://creativecommons.org/ns#"
   xmlns:rdf="http://www.w3.org/1999/02/22-rdf-syntax-ns#"
   xmlns:svg="http://www.w3.org/2000/svg"
   xmlns="http://www.w3.org/2000/svg"
   xmlns:sodipodi="http://sodipodi.sourceforge.net/DTD/sodipodi-0.dtd"
   xmlns:inkscape="http://www.inkscape.org/namespaces/inkscape"
   width="256"
   height="256"
   viewBox="0 0 67.733325 67.733316"
   version="1.1"
   id="svg8"
   inkscape:version="1.0.2 (e86c870879, 2021-01-15)"
   sodipodi:docname="logo-icono.svg"
   inkscape:export-filename="/home/darkcom/Librerias/game-dev-resources-hub/static/img/favicon.png"
   inkscape:export-xdpi="96"
   inkscape:export-ydpi="96">
  <defs
     id="defs2">
    <linearGradient
       id="linearGradient973"
       osb:paint="solid">
      <stop
         style="stop-color:#fe0e81;stop-opacity:1;"
         offset="0"
         id="stop971" />
    </linearGradient>
    <filter
       inkscape:collect="always"
       style="color-interpolation-filters:sRGB"
       id="filter875"
       x="-2.4557943e-05"
       width="1.0000491"
       y="-1.5761276e-05"
       height="1.0000315">
      <feGaussianBlur
         inkscape:collect="always"
         stdDeviation="0.00075027555"
         id="feGaussianBlur877" />
    </filter>
  </defs>
  <sodipodi:namedview
     id="base"
     pagecolor="#486783"
     bordercolor="#666666"
     borderopacity="1.0"
     inkscape:pageopacity="0.1372549"
     inkscape:pageshadow="2"
     inkscape:zoom="0.72951879"
     inkscape:cx="248.62114"
     inkscape:cy="264.20131"
     inkscape:document-units="mm"
     inkscape:current-layer="layer3"
     inkscape:document-rotation="0"
     showgrid="false"
     inkscape:pagecheckerboard="true"
     showguides="false"
     inkscape:guide-bbox="true"
     inkscape:window-width="1366"
     inkscape:window-height="717"
     inkscape:window-x="0"
     inkscape:window-y="0"
     inkscape:window-maximized="1"
     fit-margin-top="0"
     fit-margin-left="0"
     fit-margin-right="0"
     fit-margin-bottom="0"
     units="px">
    <sodipodi:guide
       position="73.133488,65.71759"
       orientation="1,0"
       id="guide982" />
  </sodipodi:namedview>
  <metadata
     id="metadata5">
    <rdf:RDF>
      <cc:Work
         rdf:about="">
        <dc:format>image/svg+xml</dc:format>
        <dc:type
           rdf:resource="http://purl.org/dc/dcmitype/StillImage" />
        <dc:title></dc:title>
      </cc:Work>
    </rdf:RDF>
  </metadata>
  <g
     inkscape:groupmode="layer"
     id="layer3"
     inkscape:label="fondo"
     style="display:inline"
     transform="translate(-0.4081317,-0.13049899)">
    <rect
       style="display:inline;mix-blend-mode:normal;fill:#341b44;fill-opacity:1;stroke-width:1.93778;stroke-linecap:square;stroke-linejoin:bevel;paint-order:fill markers stroke"
       id="rect851"
       width="67.73333"
       height="67.73333"
       x="0.40813169"
       y="0.13049899" />
  </g>
  <g
     inkscape:groupmode="layer"
     id="layer2"
     inkscape:label="Contorno"
     transform="translate(-35.388178,-8.071779)"
     style="display:inline">
    <path
       style="fill:#e8e9ec;fill-opacity:1;stroke:none;stroke-width:3;stroke-linecap:butt;stroke-linejoin:miter;stroke-miterlimit:4;stroke-dasharray:none;stroke-opacity:1;paint-order:stroke markers fill;filter:url(#filter875)"
       d="M 119.3665,23.352003 130.70152,9.7089608 c 2.54697,-1.9306482 26.45968,-2.4168581 31.62751,0 4.91129,4.1701862 9.21629,7.9990302 15.12127,15.1497882 5.52288,6.688058 4.01022,10.313673 4.01022,10.313673 v 58.46668 c 0,0 0.8498,3.119308 -6.73912,11.629908 -7.58891,8.5106 -24.43029,17.05049 -28.11429,17.05049 -7.75988,0 -16.39653,-17.69714 -18.66593,-20.71121 -2.26939,-3.014064 -2.53133,-10.305961 -2.70396,-16.361216 -7.94649,-2.620181 -4.95891,-2.954515 -16.9102,-6.907228 11.8483,0 14.05284,-0.548713 27.01734,-0.548713 -0.15577,4.48896 0.15109,13.480987 0.0657,17.3713 2.34435,4.547157 8.14582,15.833017 11.16782,15.833017 2.82533,0 17.10646,-7.42367 20.87738,-11.955387 3.89637,-4.6825 4.28547,-2.994841 4.24833,-12.175996 l -0.19102,-47.224935 c 0,-5.974784 1.28571,-9.566672 -4.34897,-15.021584 -5.21505,-5.04867 -7.6557,-8.115423 -14.45232,-8.115423 -6.79662,0 -15.62831,-0.07219 -15.62831,-0.07219 0,0 -5.27127,8.268624 -6.40909,8.268624 h -22.10064 z"
       id="path934"
       sodipodi:nodetypes="cccsccssscccccsscsscscc"
       transform="matrix(0.43528025,0,0,0.43528025,21.571904,14.083296)" />
    <circle
       style="fill:#4c7090;fill-opacity:1;stroke-width:0.36588;stroke-linecap:round;stroke-linejoin:bevel;paint-order:stroke markers fill"
       id="path865"
       cx="84.657784"
       cy="36.420174"
       r="10.504789" />
    <path
       style="fill:#e8e9ec;fill-opacity:1;stroke:none;stroke-width:1.30584;stroke-linecap:butt;stroke-linejoin:miter;stroke-miterlimit:4;stroke-dasharray:none;stroke-opacity:1;paint-order:stroke markers fill"
       d="m 64.086451,24.247965 -4.93391,-5.938548 c -1.108646,-0.840373 -11.517376,-1.052011 -13.76683,0 -2.137788,1.815201 -4.011669,3.481821 -6.581991,6.594404 -2.404001,2.91118 -1.74557,4.489339 -1.74557,4.489339 v 25.449391 c 0,0 -0.369901,1.357773 2.933406,5.062269 3.303303,3.704496 10.634023,7.421741 12.237596,7.421741 3.377722,0 7.137086,-7.703215 8.12491,-9.01518 0.987821,-1.311963 1.101838,-4.485981 1.176981,-7.121714 3.45895,-1.140513 2.158515,-1.286042 7.360677,-3.00658 -5.157332,0 -6.116925,-0.238844 -11.760116,-0.238844 0.0678,1.953955 -0.06577,5.868007 -0.0286,7.561384 -1.02045,1.979287 -3.545715,6.891799 -4.861132,6.891799 -1.22981,0 -7.446104,-3.231377 -9.087511,-5.203944 -1.696013,-2.038199 -1.865381,-1.303595 -1.849214,-5.29997 l 0.08315,-20.556082 c 0,-2.600705 -0.559644,-4.164183 1.893021,-6.538599 2.270008,-2.197586 3.332375,-3.532483 6.290809,-3.532483 2.958435,0 6.802695,-0.03142 6.802695,-0.03142 0,0 2.29448,3.599169 2.78975,3.599169 h 9.619974 z"
       id="path896"
       sodipodi:nodetypes="cccsccssscccccsscsscscc" />
  </g>
  <g
     inkscape:groupmode="layer"
     id="layer1"
     inkscape:label="GDRH"
     style="display:inline;mix-blend-mode:normal"
     transform="translate(-0.4081317,-0.13049899)">
    <g
       aria-label="GDRH"
       id="text869"
       style="font-size:39.3732px;line-height:1.25;font-family:Born2bSportyV2;-inkscape-font-specification:'Born2bSportyV2, Normal';opacity:0.96;fill:#e8e9ec;fill-opacity:1;stroke:none;stroke-width:3.33897;stroke-linecap:square;stroke-miterlimit:4;stroke-dasharray:none;stroke-opacity:1;paint-order:fill markers stroke;image-rendering:pixelated"
       transform="matrix(0.43528025,0,0,0.43528025,1.8179798,9.5986963)">
      <path
         d="m 14.663868,34.380507 3.845039,-3.845039 h 15.380156 l 3.845039,3.845039 v 3.845039 h -7.690078 v -3.845039 h -7.690078 v 19.225195 h 7.690078 v -7.690078 h -3.845039 v -3.845039 h 11.535117 v 11.535117 l -3.845039,3.845039 H 18.508907 l -3.845039,-3.845039 z"
         style="font-style:normal;font-variant:normal;font-weight:normal;font-stretch:normal;font-size:39.3732px;font-family:'Commodore 64 Angled';-inkscape-font-specification:'Commodore 64 Angled';fill:#e8e9ec;fill-opacity:1;stroke:none;stroke-width:3.33897;stroke-linecap:square;stroke-miterlimit:4;stroke-dasharray:none;stroke-opacity:1;paint-order:fill markers stroke"
         id="path897" />
      <path
         d="m 45.424179,30.535468 h 15.380156 l 3.845039,3.845039 3.845039,3.845039 v 11.535117 l -3.845039,3.845039 -3.845039,3.845039 H 45.424179 Z m 7.690078,3.845039 v 19.225195 h 3.845039 l 3.845039,-3.845039 V 38.225546 l -3.845039,-3.845039 z"
         style="font-style:normal;font-variant:normal;font-weight:normal;font-stretch:normal;font-size:39.3732px;font-family:'Commodore 64 Angled';-inkscape-font-specification:'Commodore 64 Angled';fill:#e8e9ec;fill-opacity:1;stroke:none;stroke-width:3.33897;stroke-linecap:square;stroke-miterlimit:4;stroke-dasharray:none;stroke-opacity:1;paint-order:fill markers stroke"
         id="path899" />
      <path
         d="m 76.18449,30.535468 h 19.225195 l 3.845039,3.845039 v 7.690078 l -3.845039,3.845039 h -3.845039 l 3.845039,3.845039 3.845039,3.845039 v 3.845039 h -7.690078 v -3.845039 l -3.845039,-3.845039 h -3.845039 v 7.690078 H 76.18449 Z m 7.690078,3.845039 v 7.690078 h 7.690078 v -7.690078 z"
         style="font-style:normal;font-variant:normal;font-weight:normal;font-stretch:normal;font-size:39.3732px;font-family:'Commodore 64 Angled';-inkscape-font-specification:'Commodore 64 Angled';fill:#e8e9ec;fill-opacity:1;stroke:none;stroke-width:3.33897;stroke-linecap:square;stroke-miterlimit:4;stroke-dasharray:none;stroke-opacity:1;paint-order:fill markers stroke"
         id="path902" />
      <path
         d="m 106.9448,30.535468 h 7.69008 v 11.535117 h 7.69007 V 30.535468 h 7.69008 v 26.915273 h -7.69008 V 45.915624 h -7.69007 v 11.535117 h -7.69008 z"
         style="font-style:normal;font-variant:normal;font-weight:normal;font-stretch:normal;font-size:39.3732px;font-family:'Commodore 64 Angled';-inkscape-font-specification:'Commodore 64 Angled';fill:#e8e9ec;fill-opacity:1;stroke:none;stroke-width:3.33897;stroke-linecap:square;stroke-miterlimit:4;stroke-dasharray:none;stroke-opacity:1;paint-order:fill markers stroke"
         id="path904" />
    </g>
  </g>
</svg>
