<?xml version="1.0" encoding="UTF-8" standalone="no"?>
<svg
   xmlns:osb="http://www.openswatchbook.org/uri/2009/osb"
   xmlns:dc="http://purl.org/dc/elements/1.1/"
   xmlns:cc="http://creativecommons.org/ns#"
   xmlns:rdf="http://www.w3.org/1999/02/22-rdf-syntax-ns#"
   xmlns:svg="http://www.w3.org/2000/svg"
   xmlns="http://www.w3.org/2000/svg"
   xmlns:xlink="http://www.w3.org/1999/xlink"
   xmlns:sodipodi="http://sodipodi.sourceforge.net/DTD/sodipodi-0.dtd"
   xmlns:inkscape="http://www.inkscape.org/namespaces/inkscape"
   width="146.26181mm"
   height="157.4678mm"
   viewBox="0 0 146.2618 157.46777"
   version="1.1"
   id="svg8"
   inkscape:version="1.0.2 (e86c870879, 2021-01-15)"
   sodipodi:docname="logo-3.svg">
  <defs
     id="defs2">
    <linearGradient
       inkscape:collect="always"
       id="linearGradient2954">
      <stop
         style="stop-color:#fe0e81;stop-opacity:1"
         offset="0"
         id="stop2950" />
      <stop
         style="stop-color:#1d8df0;stop-opacity:1"
         offset="0.58564246"
         id="stop2964" />
      <stop
         style="stop-color:#0ad8a9;stop-opacity:1"
         offset="1"
         id="stop2952" />
    </linearGradient>
    <linearGradient
       id="linearGradient973"
       osb:paint="solid">
      <stop
         style="stop-color:#fe0e81;stop-opacity:1;"
         offset="0"
         id="stop971" />
    </linearGradient>
    <linearGradient
       inkscape:collect="always"
       xlink:href="#linearGradient2954"
       id="linearGradient2962"
       x1="-119.21277"
       y1="32.002598"
       x2="-119.21277"
       y2="-73.603691"
       gradientUnits="userSpaceOnUse"
       gradientTransform="translate(154.5519,78.770805)" />
    <filter
       inkscape:collect="always"
       style="color-interpolation-filters:sRGB"
       id="filter875"
       x="-2.4557944e-05"
       width="1.0000491"
       y="-1.5761275e-05"
       height="1.0000315">
      <feGaussianBlur
         inkscape:collect="always"
         stdDeviation="0.00075027555"
         id="feGaussianBlur877" />
    </filter>
  </defs>
  <sodipodi:namedview
     id="base"
     pagecolor="#486783"
     bordercolor="#666666"
     borderopacity="1.0"
     inkscape:pageopacity="0.1372549"
     inkscape:pageshadow="2"
     inkscape:zoom="0.53907535"
     inkscape:cx="397.80594"
     inkscape:cy="353.66593"
     inkscape:document-units="mm"
     inkscape:current-layer="layer1"
     inkscape:document-rotation="0"
     showgrid="false"
     inkscape:pagecheckerboard="true"
     showguides="false"
     inkscape:guide-bbox="true"
     inkscape:window-width="1366"
     inkscape:window-height="717"
     inkscape:window-x="0"
     inkscape:window-y="0"
     inkscape:window-maximized="1"
     fit-margin-top="0"
     fit-margin-left="0"
     fit-margin-right="0"
     fit-margin-bottom="0">
    <sodipodi:guide
       position="73.133489,108.93767"
       orientation="1,0"
       id="guide982" />
  </sodipodi:namedview>
  <metadata
     id="metadata5">
    <rdf:RDF>
      <cc:Work
         rdf:about="">
        <dc:format>image/svg+xml</dc:format>
        <dc:type
           rdf:resource="http://purl.org/dc/dcmitype/StillImage" />
        <dc:title></dc:title>
      </cc:Work>
    </rdf:RDF>
  </metadata>
  <g
     inkscape:groupmode="layer"
     id="layer3"
     inkscape:label="fondo"
     style="display:none"
     sodipodi:insensitive="true"
     transform="translate(-0.40813215,-0.13229963)">
    <path
       style="opacity:0.997;fill:url(#linearGradient2962);fill-opacity:1;stroke:none;stroke-width:0.265;stroke-linecap:butt;stroke-linejoin:miter;stroke-miterlimit:4;stroke-dasharray:none;stroke-opacity:1"
       d="m 51.060372,16.67283 h 42.885392 l 5.345574,-9.8337116 25.118622,0.07471 14.36598,15.4602956 V 90.834721 L 110.34602,107.24873 95.332207,89.012012 V 71.411982 H 49.592132 V 89.643681 L 35.339132,110.77339 5.872622,93.760907 V 22.119955 L 22.149762,5.8428164 h 22.82539 z"
       id="path901" />
  </g>
  <g
     inkscape:groupmode="layer"
     id="layer2"
     inkscape:label="Contorno"
     transform="translate(-35.388178,-8.0735796)"
     style="display:inline">
    <path
       style="fill:#e8e9ec;fill-opacity:1;stroke:none;stroke-width:3;stroke-linecap:butt;stroke-linejoin:miter;stroke-miterlimit:4;stroke-dasharray:none;stroke-opacity:1;paint-order:stroke markers fill;filter:url(#filter875)"
       d="M 119.3665,23.352003 130.70152,9.7089608 c 2.54697,-1.9306482 26.45968,-2.4168581 31.62751,0 4.91129,4.1701862 9.21629,7.9990302 15.12127,15.1497882 5.52288,6.688058 4.01022,10.313673 4.01022,10.313673 v 58.46668 c 0,0 0.8498,3.119308 -6.73912,11.629908 -7.58891,8.5106 -24.43029,17.05049 -28.11429,17.05049 -7.75988,0 -16.39653,-17.69714 -18.66593,-20.71121 -2.26939,-3.014064 -2.53133,-10.305961 -2.70396,-16.361216 -7.94649,-2.620181 -4.95891,-2.954515 -16.9102,-6.907228 11.8483,0 14.05284,-0.548713 27.01734,-0.548713 -0.15577,4.48896 0.15109,13.480987 0.0657,17.3713 2.34435,4.547157 8.14582,15.833017 11.16782,15.833017 2.82533,0 17.10646,-7.42367 20.87738,-11.955387 3.89637,-4.6825 4.28547,-2.994841 4.24833,-12.175996 l -0.19102,-47.224935 c 0,-5.974784 1.28571,-9.566672 -4.34897,-15.021584 -5.21505,-5.04867 -7.6557,-8.115423 -14.45232,-8.115423 -6.79662,0 -15.62831,-0.07219 -15.62831,-0.07219 0,0 -5.27127,8.268624 -6.40909,8.268624 h -22.10064 z"
       id="path934"
       sodipodi:nodetypes="cccsccssscccccsscsscscc" />
    <circle
       style="fill:#4c7090;fill-opacity:1;stroke-width:0.840561;stroke-linecap:round;stroke-linejoin:bevel;paint-order:stroke markers fill"
       id="path865"
       cx="144.93164"
       cy="51.316071"
       r="24.133392" />
    <path
       style="fill:#e8e9ec;fill-opacity:1;stroke:none;stroke-width:3;stroke-linecap:butt;stroke-linejoin:miter;stroke-miterlimit:4;stroke-dasharray:none;stroke-opacity:1;paint-order:stroke markers fill"
       d="M 97.671667,23.352003 86.336647,9.7089608 c -2.54697,-1.9306482 -26.45968,-2.4168581 -31.62751,0 -4.91129,4.1701862 -9.21629,7.9990302 -15.121272,15.1497882 -5.52288,6.688058 -4.01022,10.313673 -4.01022,10.313673 v 58.46668 c 0,0 -0.8498,3.119308 6.73912,11.629908 7.588912,8.5106 24.430292,17.05049 28.114292,17.05049 7.75988,0 16.39653,-17.69714 18.66593,-20.71121 2.26939,-3.014064 2.53133,-10.305961 2.70396,-16.361216 7.94649,-2.620181 4.95891,-2.954515 16.910203,-6.907228 -11.848303,0 -14.052843,-0.548713 -27.017343,-0.548713 0.15577,4.48896 -0.15109,13.480987 -0.0657,17.3713 -2.34435,4.547157 -8.14582,15.833017 -11.16782,15.833017 -2.82533,0 -17.10646,-7.42367 -20.87738,-11.955387 -3.89637,-4.6825 -4.28547,-2.994841 -4.24833,-12.175996 l 0.19102,-47.224935 c 0,-5.974784 -1.28571,-9.566672 4.34897,-15.021584 5.21505,-5.04867 7.6557,-8.115423 14.45232,-8.115423 6.79662,0 15.62831,-0.07219 15.62831,-0.07219 0,0 5.27127,8.268624 6.40909,8.268624 h 22.100643 z"
       id="path896"
       sodipodi:nodetypes="cccsccssscccccsscsscscc" />
  </g>
  <g
     inkscape:groupmode="layer"
     id="layer1"
     inkscape:label="GDRH"
     style="display:inline;mix-blend-mode:normal"
     transform="translate(-0.40813215,-0.13229963)">
    <g
       aria-label="GDRH"
       id="text869"
       style="font-size:39.3732px;line-height:1.25;font-family:Born2bSportyV2;-inkscape-font-specification:'Born2bSportyV2, Normal';opacity:0.96;fill:#e8e9ec;fill-opacity:1;stroke:none;stroke-width:3.33897;stroke-linecap:square;stroke-miterlimit:4;stroke-dasharray:none;stroke-opacity:1;paint-order:fill markers stroke;image-rendering:pixelated">
      <path
         d="m 14.663868,34.380507 3.845039,-3.845039 h 15.380156 l 3.845039,3.845039 v 3.845039 h -7.690078 v -3.845039 h -7.690078 v 19.225195 h 7.690078 v -7.690078 h -3.845039 v -3.845039 h 11.535117 v 11.535117 l -3.845039,3.845039 H 18.508907 l -3.845039,-3.845039 z"
         style="font-style:normal;font-variant:normal;font-weight:normal;font-stretch:normal;font-size:39.3732px;font-family:'Commodore 64 Angled';-inkscape-font-specification:'Commodore 64 Angled';fill:#e8e9ec;fill-opacity:1;stroke:none;stroke-width:3.33897;stroke-linecap:square;stroke-miterlimit:4;stroke-dasharray:none;stroke-opacity:1;paint-order:fill markers stroke"
         id="path897" />
      <path
         d="m 45.424179,30.535468 h 15.380156 l 3.845039,3.845039 3.845039,3.845039 v 11.535117 l -3.845039,3.845039 -3.845039,3.845039 H 45.424179 Z m 7.690078,3.845039 v 19.225195 h 3.845039 l 3.845039,-3.845039 V 38.225546 l -3.845039,-3.845039 z"
         style="font-style:normal;font-variant:normal;font-weight:normal;font-stretch:normal;font-size:39.3732px;font-family:'Commodore 64 Angled';-inkscape-font-specification:'Commodore 64 Angled';fill:#e8e9ec;fill-opacity:1;stroke:none;stroke-width:3.33897;stroke-linecap:square;stroke-miterlimit:4;stroke-dasharray:none;stroke-opacity:1;paint-order:fill markers stroke"
         id="path899" />
      <path
         d="m 76.18449,30.535468 h 19.225195 l 3.845039,3.845039 v 7.690078 l -3.845039,3.845039 h -3.845039 l 3.845039,3.845039 3.845039,3.845039 v 3.845039 h -7.690078 v -3.845039 l -3.845039,-3.845039 h -3.845039 v 7.690078 H 76.18449 Z m 7.690078,3.845039 v 7.690078 h 7.690078 v -7.690078 z"
         style="font-style:normal;font-variant:normal;font-weight:normal;font-stretch:normal;font-size:39.3732px;font-family:'Commodore 64 Angled';-inkscape-font-specification:'Commodore 64 Angled';fill:#e8e9ec;fill-opacity:1;stroke:none;stroke-width:3.33897;stroke-linecap:square;stroke-miterlimit:4;stroke-dasharray:none;stroke-opacity:1;paint-order:fill markers stroke"
         id="path902" />
      <path
         d="m 106.9448,30.535468 h 7.69008 v 11.535117 h 7.69007 V 30.535468 h 7.69008 v 26.915273 h -7.69008 V 45.915624 h -7.69007 v 11.535117 h -7.69008 z"
         style="font-style:normal;font-variant:normal;font-weight:normal;font-stretch:normal;font-size:39.3732px;font-family:'Commodore 64 Angled';-inkscape-font-specification:'Commodore 64 Angled';fill:#e8e9ec;fill-opacity:1;stroke:none;stroke-width:3.33897;stroke-linecap:square;stroke-miterlimit:4;stroke-dasharray:none;stroke-opacity:1;paint-order:fill markers stroke"
         id="path904" />
    </g>
    <g
       aria-label="Game Dev
Resources Hub"
       id="text2994"
       style="font-size:17.5724px;line-height:0;font-family:Born2bSportyV2;-inkscape-font-specification:'Born2bSportyV2, Normal';text-align:center;text-anchor:middle;opacity:0.96;fill:#4c7090;fill-opacity:1;stroke-width:0.439312">
      <path
         d="m 2.6195669,123.37033 2.288086,-2.28809 h 9.1523441 l 2.288086,2.28809 v 2.28809 h -4.576172 v -2.28809 H 7.1957389 v 11.44043 h 4.5761721 v -4.57617 H 9.4838248 v -2.28809 h 6.8642582 v 6.86426 l -2.288086,2.28809 H 4.9076529 l -2.288086,-2.28809 z"
         style="font-style:normal;font-variant:normal;font-weight:normal;font-stretch:normal;font-size:23.43px;line-height:0.95;font-family:'Commodore 64 Angled';-inkscape-font-specification:'Commodore 64 Angled';text-align:center;text-anchor:middle;fill:#4c7090;fill-opacity:1;stroke-width:0.439312"
         id="path907" />
      <path
         d="m 20.924254,132.52267 2.288086,-2.28808 h 6.864258 V 127.9465 H 23.21234 v -2.28808 h 9.152344 l 2.288086,2.28808 v 9.15235 H 23.21234 l -2.288086,-2.28809 z m 4.576172,0 v 2.28809 h 4.576172 v -2.28809 z"
         style="font-style:normal;font-variant:normal;font-weight:normal;font-stretch:normal;font-size:23.43px;line-height:0.95;font-family:'Commodore 64 Angled';-inkscape-font-specification:'Commodore 64 Angled';text-align:center;text-anchor:middle;fill:#4c7090;fill-opacity:1;stroke-width:0.439312"
         id="path909" />
      <path
         d="m 39.228942,125.65842 h 4.576172 v 2.28808 h 4.576172 v -2.28808 h 4.576172 l 2.288086,2.28808 v 9.15235 h -4.576172 v -4.57618 h -2.288086 v 2.28809 H 46.0932 v -2.28809 h -2.288086 v 4.57618 h -4.576172 z"
         style="font-style:normal;font-variant:normal;font-weight:normal;font-stretch:normal;font-size:23.43px;line-height:0.95;font-family:'Commodore 64 Angled';-inkscape-font-specification:'Commodore 64 Angled';text-align:center;text-anchor:middle;fill:#4c7090;fill-opacity:1;stroke-width:0.439312"
         id="path911" />
      <path
         d="m 57.533629,127.9465 2.288086,-2.28808 h 9.152344 l 2.288086,2.28808 v 4.57617 h -9.152344 v 2.28809 h 6.864258 v 2.28809 h -9.152344 l -2.288086,-2.28809 z m 4.576172,0 v 2.28809 h 4.576172 v -2.28809 z"
         style="font-style:normal;font-variant:normal;font-weight:normal;font-stretch:normal;font-size:23.43px;line-height:0.95;font-family:'Commodore 64 Angled';-inkscape-font-specification:'Commodore 64 Angled';text-align:center;text-anchor:middle;fill:#4c7090;fill-opacity:1;stroke-width:0.439312"
         id="path913" />
      <path
         d="m 94.143004,121.08224 h 9.152346 l 2.28808,2.28809 2.28809,2.28809 v 6.86425 l -2.28809,2.28809 -2.28808,2.28809 h -9.152346 z m 4.576172,2.28809 v 11.44043 h 2.288084 l 2.28809,-2.28809 v -6.86425 l -2.28809,-2.28809 z"
         style="font-style:normal;font-variant:normal;font-weight:normal;font-stretch:normal;font-size:23.43px;line-height:0.95;font-family:'Commodore 64 Angled';-inkscape-font-specification:'Commodore 64 Angled';text-align:center;text-anchor:middle;fill:#4c7090;fill-opacity:1;stroke-width:0.439312"
         id="path915" />
      <path
         d="m 112.44769,127.9465 2.28809,-2.28808 h 9.15234 l 2.28809,2.28808 v 4.57617 h -9.15235 v 2.28809 h 6.86426 v 2.28809 h -9.15234 l -2.28809,-2.28809 z m 4.57617,0 v 2.28809 h 4.57618 v -2.28809 z"
         style="font-style:normal;font-variant:normal;font-weight:normal;font-stretch:normal;font-size:23.43px;line-height:0.95;font-family:'Commodore 64 Angled';-inkscape-font-specification:'Commodore 64 Angled';text-align:center;text-anchor:middle;fill:#4c7090;fill-opacity:1;stroke-width:0.439312"
         id="path917" />
      <path
         d="m 130.75238,125.65842 h 4.57617 v 6.86425 h 4.57617 v -6.86425 h 4.57618 v 6.86425 l -2.28809,2.28809 -2.28809,2.28809 h -4.57617 l -2.28808,-2.28809 -2.28809,-2.28809 z"
         style="font-style:normal;font-variant:normal;font-weight:normal;font-stretch:normal;font-size:23.43px;line-height:0.95;font-family:'Commodore 64 Angled';-inkscape-font-specification:'Commodore 64 Angled';text-align:center;text-anchor:middle;fill:#4c7090;fill-opacity:1;stroke-width:0.439312"
         id="path919" />
      <path
         d="m 3.2703384,141.55705 h 6.8901856 l 1.378037,1.37804 v 2.75607 l -1.378037,1.37804 H 8.7824869 l 1.3780371,1.37803 1.378037,1.37804 v 1.37804 H 8.7824869 v -1.37804 L 7.4044498,148.44723 H 6.0264126 v 2.75608 H 3.2703384 Z m 2.7560742,1.37804 v 2.75607 h 2.7560743 v -2.75607 z"
         style="font-style:normal;font-variant:normal;font-weight:normal;font-stretch:normal;font-size:14.1111px;line-height:0.95;font-family:'Commodore 64 Angled';-inkscape-font-specification:'Commodore 64 Angled';text-align:center;text-anchor:middle;fill:#4c7090;fill-opacity:1;stroke-width:0.439312"
         id="path921" />
      <path
         d="m 14.294635,145.69116 1.378037,-1.37804 h 5.512149 l 1.378037,1.37804 v 2.75607 h -5.512149 v 1.37804 h 4.134112 v 1.37804 h -5.512149 l -1.378037,-1.37804 z m 2.756074,0 v 1.37804 h 2.756075 v -1.37804 z"
         style="font-style:normal;font-variant:normal;font-weight:normal;font-stretch:normal;font-size:14.1111px;line-height:0.95;font-family:'Commodore 64 Angled';-inkscape-font-specification:'Commodore 64 Angled';text-align:center;text-anchor:middle;fill:#4c7090;fill-opacity:1;stroke-width:0.439312"
         id="path923" />
      <path
         d="m 25.318932,149.82527 h 5.512148 v -1.37804 h -4.134111 l -1.378037,-1.37803 v -1.37804 l 1.378037,-1.37804 h 6.890186 v 1.37804 h -5.512149 v 1.37804 h 4.134112 l 1.378037,1.37803 v 1.37804 l -1.378037,1.37804 h -6.890186 z"
         style="font-style:normal;font-variant:normal;font-weight:normal;font-stretch:normal;font-size:14.1111px;line-height:0.95;font-family:'Commodore 64 Angled';-inkscape-font-specification:'Commodore 64 Angled';text-align:center;text-anchor:middle;fill:#4c7090;fill-opacity:1;stroke-width:0.439312"
         id="path925" />
      <path
         d="m 36.34323,145.69116 1.378037,-1.37804 h 5.512148 l 1.378037,1.37804 v 4.13411 l -1.378037,1.37804 h -5.512148 l -1.378037,-1.37804 z m 2.756074,0 v 4.13411 h 2.756074 v -4.13411 z"
         style="font-style:normal;font-variant:normal;font-weight:normal;font-stretch:normal;font-size:14.1111px;line-height:0.95;font-family:'Commodore 64 Angled';-inkscape-font-specification:'Commodore 64 Angled';text-align:center;text-anchor:middle;fill:#4c7090;fill-opacity:1;stroke-width:0.439312"
         id="path927" />
      <path
         d="M 47.367525,144.31312 H 50.1236 v 5.51215 h 2.756074 v -5.51215 h 2.756074 v 6.89019 h -6.890185 l -1.378038,-1.37804 z"
         style="font-style:normal;font-variant:normal;font-weight:normal;font-stretch:normal;font-size:14.1111px;line-height:0.95;font-family:'Commodore 64 Angled';-inkscape-font-specification:'Commodore 64 Angled';text-align:center;text-anchor:middle;fill:#4c7090;fill-opacity:1;stroke-width:0.439312"
         id="path929" />
      <path
         d="m 58.391821,144.31312 h 6.890186 l 1.378037,1.37804 v 1.37804 H 63.90397 v -1.37804 h -2.756075 v 5.51215 h -2.756074 z"
         style="font-style:normal;font-variant:normal;font-weight:normal;font-stretch:normal;font-size:14.1111px;line-height:0.95;font-family:'Commodore 64 Angled';-inkscape-font-specification:'Commodore 64 Angled';text-align:center;text-anchor:middle;fill:#4c7090;fill-opacity:1;stroke-width:0.439312"
         id="path931" />
      <path
         d="m 69.416121,145.69116 1.378037,-1.37804 h 5.512148 v 1.37804 h -4.134111 v 4.13411 h 4.134111 v 1.37804 h -5.512148 l -1.378037,-1.37804 z"
         style="font-style:normal;font-variant:normal;font-weight:normal;font-stretch:normal;font-size:14.1111px;line-height:0.95;font-family:'Commodore 64 Angled';-inkscape-font-specification:'Commodore 64 Angled';text-align:center;text-anchor:middle;fill:#4c7090;fill-opacity:1;stroke-width:0.439312"
         id="path933" />
      <path
         d="m 80.440413,145.69116 1.378037,-1.37804 h 5.512148 l 1.378038,1.37804 v 2.75607 h -5.512149 v 1.37804 h 4.134111 v 1.37804 H 81.81845 l -1.378037,-1.37804 z m 2.756074,0 v 1.37804 h 2.756074 v -1.37804 z"
         style="font-style:normal;font-variant:normal;font-weight:normal;font-stretch:normal;font-size:14.1111px;line-height:0.95;font-family:'Commodore 64 Angled';-inkscape-font-specification:'Commodore 64 Angled';text-align:center;text-anchor:middle;fill:#4c7090;fill-opacity:1;stroke-width:0.439312"
         id="path935" />
      <path
         d="m 91.464712,149.82527 h 5.512149 v -1.37804 H 92.84275 l -1.378038,-1.37803 v -1.37804 l 1.378038,-1.37804 h 6.890185 v 1.37804 h -5.512148 v 1.37804 h 4.134111 l 1.378037,1.37803 v 1.37804 l -1.378037,1.37804 h -6.890186 z"
         style="font-style:normal;font-variant:normal;font-weight:normal;font-stretch:normal;font-size:14.1111px;line-height:0.95;font-family:'Commodore 64 Angled';-inkscape-font-specification:'Commodore 64 Angled';text-align:center;text-anchor:middle;fill:#4c7090;fill-opacity:1;stroke-width:0.439312"
         id="path937" />
      <path
         d="m 113.5133,141.55705 h 2.75608 v 4.13411 h 2.75607 v -4.13411 h 2.75608 v 9.64626 h -2.75608 v -4.13411 h -2.75607 v 4.13411 h -2.75608 z"
         style="font-style:normal;font-variant:normal;font-weight:normal;font-stretch:normal;font-size:14.1111px;line-height:0.95;font-family:'Commodore 64 Angled';-inkscape-font-specification:'Commodore 64 Angled';text-align:center;text-anchor:middle;fill:#4c7090;fill-opacity:1;stroke-width:0.439312"
         id="path939" />
      <path
         d="m 124.5376,144.31312 h 2.75608 v 5.51215 h 2.75607 v -5.51215 h 2.75608 v 6.89019 h -6.89019 l -1.37804,-1.37804 z"
         style="font-style:normal;font-variant:normal;font-weight:normal;font-stretch:normal;font-size:14.1111px;line-height:0.95;font-family:'Commodore 64 Angled';-inkscape-font-specification:'Commodore 64 Angled';text-align:center;text-anchor:middle;fill:#4c7090;fill-opacity:1;stroke-width:0.439312"
         id="path941" />
      <path
         d="m 135.5619,142.93509 h 2.75608 v 2.75607 h 4.13411 l 1.37804,1.37804 v 2.75607 l -1.37804,1.37804 h -6.89019 z m 2.75608,4.13411 v 2.75607 h 2.75607 v -2.75607 z"
         style="font-style:normal;font-variant:normal;font-weight:normal;font-stretch:normal;font-size:14.1111px;line-height:0.95;font-family:'Commodore 64 Angled';-inkscape-font-specification:'Commodore 64 Angled';text-align:center;text-anchor:middle;fill:#4c7090;fill-opacity:1;stroke-width:0.439312"
         id="path943" />
    </g>
  </g>
</svg>
